<svg width="46" height="46" viewBox="0 0 46 46" fill="none" xmlns="http://www.w3.org/2000/svg">
<rect x="0.75" y="0.913574" width="44.5" height="43.5" rx="21.75" fill="white"/>
<rect x="0.75" y="0.913574" width="44.5" height="43.5" rx="21.75" stroke="black" stroke-width="1.5"/>
<g clip-path="url(#clip0_1_4)">
<path d="M31.1716 19.0594C31.1716 19.2184 31.1716 19.3771 31.1716 19.5361C31.2511 25.6576 26.3223 30.5865 20.2008 30.666C20.1213 30.666 20.1211 30.666 20.0416 30.666C17.8951 30.666 15.8284 30.0299 13.9999 28.9169C14.3179 28.9169 14.6353 28.9969 14.9533 28.9969C16.7023 28.9969 18.4518 28.4399 19.8033 27.3269C18.1338 27.3269 16.6228 26.2144 16.1458 24.6244C16.3843 24.6244 16.6231 24.7036 16.8616 24.7036C17.1796 24.7036 17.577 24.6239 17.895 24.5444C16.0665 24.1469 14.7949 22.5571 14.7949 20.7286V20.6494C15.3514 20.9674 15.9073 21.1261 16.5433 21.1261C14.7943 20.0131 14.3173 17.7079 15.3508 15.8794C17.3383 18.3439 20.2803 19.7746 23.3808 19.9336C23.3013 19.6156 23.3008 19.3774 23.3008 19.0594C23.3008 16.9129 25.0501 15.1636 27.1966 15.1636C28.3096 15.1636 29.3428 15.6403 30.0583 16.4353C30.9328 16.2763 31.8078 15.9589 32.5233 15.4819C32.2053 16.3564 31.6486 17.1508 30.7741 17.6278C31.5691 17.5483 32.2844 17.3099 32.9999 16.9919C32.6024 17.7869 31.9666 18.5029 31.1716 19.0594Z" fill="black"/>
</g>
<defs>
<clipPath id="clip0_1_4">
<rect width="24" height="24" fill="white" transform="translate(12.7778 12.6636)"/>
</clipPath>
</defs>
</svg>
