<svg width="46" height="46" viewBox="0 0 46 46" fill="none" xmlns="http://www.w3.org/2000/svg">
<rect x="0.75" y="0.913574" width="44.5" height="43.5" rx="21.75" fill="#2EF2FF"/>
<rect x="0.75" y="0.913574" width="44.5" height="43.5" rx="21.75" stroke="black" stroke-width="1.5"/>
<g clip-path="url(#clip0_1_10)">
<path d="M29.9293 16.8549L27.3789 28.9678C27.1664 29.8178 26.6706 30.0299 25.9622 29.6049L22.0664 26.701L20.1538 28.5424C19.9413 28.7549 19.6582 28.8965 19.3749 28.8965L19.6585 24.9301L26.8829 18.4133C27.1663 18.13 26.8126 17.9882 26.3876 18.2715L17.4622 23.9382L13.6376 22.7339C12.7876 22.4506 12.7871 21.884 13.7788 21.459L28.8668 15.6506C29.5751 15.3672 30.2126 15.7924 29.9293 16.8549Z" fill="black"/>
</g>
<defs>
<clipPath id="clip0_1_10">
<rect width="24" height="24" fill="white" transform="translate(12.7778 12.6636)"/>
</clipPath>
</defs>
</svg>
